<svg width="2392" height="857" viewBox="0 0 2392 857" fill="none" xmlns="http://www.w3.org/2000/svg">
<g filter="url(#filter0_i_3_4)">
<path d="M2.97821 572.501C22.4288 706.172 195.242 817.53 279.218 856.5C225.591 789.423 118.337 638.716 118.337 572.501C118.337 489.733 221.28 413.172 269.906 316.954C308.807 239.979 227.832 121.758 182.482 72.2698C190.242 96.7555 199.243 161.66 173.171 225.391C118.337 384.72 -21.335 405.412 2.97821 572.501Z" fill="white"/>
<path d="M218.693 572.501C174.412 678.858 263.699 798.907 313.877 845.637C315.774 837.015 279.218 744.245 313.877 651.131C360.619 525.555 481.603 511.977 492.983 364.546C502.088 246.601 320.257 101.066 211.968 53.1296C272.493 80.8915 391.265 169.626 382.161 302.469C370.78 468.523 274.045 439.554 218.693 572.501Z" fill="white"/>
</g>
<g filter="url(#filter1_i_3_4)">
<path d="M757.938 696.365H660.526V263.503C660.526 233.718 666.263 208.694 677.738 188.43C689.212 167.922 705.57 152.419 726.81 141.921C748.05 131.423 773.074 126.174 801.883 126.174C811.405 126.174 820.438 126.785 828.983 128.005C837.772 129.226 846.439 130.935 854.984 133.132L853.153 206.741C848.514 205.52 843.387 204.666 837.772 204.177C832.401 203.689 826.419 203.445 819.827 203.445C806.644 203.445 795.413 205.764 786.136 210.403C776.859 215.042 769.779 221.877 764.896 230.911C760.257 239.7 757.938 250.564 757.938 263.503V696.365ZM838.138 300.125V369.705H600.833V300.125H838.138ZM1133.67 602.249V300.125H1231.08V696.365H1139.53L1133.67 602.249ZM1146.12 520.217L1176.15 519.485C1176.15 546.096 1173.22 570.632 1167.36 593.093C1161.5 615.554 1152.35 635.085 1139.9 651.687C1127.69 668.044 1112.19 680.862 1093.39 690.139C1074.59 699.172 1052.37 703.689 1026.74 703.689C1007.21 703.689 989.383 701.003 973.27 695.632C957.156 690.017 943.24 681.35 931.522 669.631C920.047 657.668 911.136 642.41 904.788 623.855C898.441 605.056 895.267 582.473 895.267 556.106V300.125H991.947V556.838C991.947 570.022 993.411 581.008 996.341 589.797C999.515 598.586 1003.79 605.789 1009.16 611.404C1014.77 616.775 1021.24 620.681 1028.57 623.123C1036.14 625.32 1044.19 626.418 1052.74 626.418C1076.18 626.418 1094.61 621.78 1108.04 612.502C1121.71 602.981 1131.47 590.286 1137.33 574.417C1143.19 558.303 1146.12 540.237 1146.12 520.217ZM1413.09 381.423V696.365H1316.41V300.125H1407.6L1413.09 381.423ZM1398.81 483.962H1369.14C1369.14 456.375 1372.44 430.984 1379.03 407.791C1385.87 384.597 1395.88 364.456 1409.06 347.366C1422.24 330.032 1438.48 316.604 1457.77 307.083C1477.3 297.561 1499.88 292.8 1525.52 292.8C1543.34 292.8 1559.7 295.486 1574.59 300.857C1589.48 305.984 1602.3 314.163 1613.04 325.393C1624.03 336.379 1632.45 350.784 1638.31 368.606C1644.17 386.184 1647.1 407.302 1647.1 431.96V696.365H1550.42V441.848C1550.42 423.293 1547.73 408.767 1542.36 398.269C1537.23 387.771 1529.79 380.447 1520.02 376.296C1510.26 371.902 1498.54 369.705 1484.87 369.705C1469.73 369.705 1456.67 372.756 1445.68 378.86C1434.94 384.719 1426.03 392.898 1418.95 403.396C1412.11 413.894 1406.99 425.979 1403.57 439.651C1400.39 453.323 1398.81 468.093 1398.81 483.962ZM1639.77 466.018L1599.86 473.342C1600.1 448.44 1603.52 425.125 1610.11 403.396C1616.7 381.423 1626.35 362.258 1639.04 345.901C1651.98 329.299 1667.97 316.36 1687.01 307.083C1706.3 297.561 1728.52 292.8 1753.67 292.8C1773.2 292.8 1790.77 295.608 1806.4 301.223C1822.27 306.594 1835.82 315.261 1847.05 327.224C1858.28 338.943 1866.82 354.202 1872.68 373C1878.79 391.799 1881.84 414.749 1881.84 441.848V696.365H1784.43V441.482C1784.43 422.195 1781.74 407.424 1776.37 397.17C1771.24 386.917 1763.8 379.836 1754.03 375.93C1744.27 371.78 1732.79 369.705 1719.61 369.705C1706.18 369.705 1694.46 372.268 1684.45 377.395C1674.69 382.278 1666.39 389.114 1659.55 397.903C1652.96 406.692 1647.95 416.946 1644.53 428.665C1641.36 440.139 1639.77 452.59 1639.77 466.018ZM2146.61 703.689C2116.58 703.689 2089.6 698.806 2065.68 689.041C2041.75 679.275 2021.37 665.725 2004.52 648.391C1987.92 630.813 1975.1 610.427 1966.07 587.234C1957.28 563.796 1952.88 538.65 1952.88 511.794V497.146C1952.88 466.628 1957.28 438.918 1966.07 414.016C1974.86 388.87 1987.31 367.263 2003.42 349.197C2019.53 331.13 2038.82 317.214 2061.28 307.449C2083.74 297.683 2108.52 292.8 2135.62 292.8C2163.7 292.8 2188.48 297.561 2209.96 307.083C2231.45 316.36 2249.39 329.543 2263.8 346.633C2278.2 363.723 2289.07 384.231 2296.39 408.157C2303.71 431.838 2307.38 458.083 2307.38 486.892V527.542H1996.83V460.891H2212.16V453.567C2211.67 438.186 2208.74 424.148 2203.37 411.453C2198 398.513 2189.7 388.259 2178.47 380.691C2167.24 372.878 2152.71 368.972 2134.89 368.972C2120.49 368.972 2107.91 372.146 2097.17 378.494C2086.67 384.597 2077.88 393.386 2070.8 404.861C2063.97 416.091 2058.84 429.519 2055.42 445.144C2052.01 460.769 2050.3 478.103 2050.3 497.146V511.794C2050.3 528.396 2052.49 543.777 2056.89 557.937C2061.53 572.097 2068.24 584.426 2077.03 594.924C2086.06 605.178 2096.8 613.235 2109.26 619.094C2121.95 624.709 2136.36 627.517 2152.47 627.517C2172.73 627.517 2191.04 623.611 2207.4 615.798C2224 607.742 2238.41 595.901 2250.61 580.276L2299.32 630.813C2291.02 643.02 2279.79 654.739 2265.63 665.969C2251.71 677.2 2234.87 686.355 2215.09 693.435C2195.32 700.271 2172.49 703.689 2146.61 703.689Z" fill="white"/>
</g>
<defs>
<filter id="filter0_i_3_4" x="0.163574" y="53.1296" width="493.149" height="811.37" filterUnits="userSpaceOnUse" color-interpolation-filters="sRGB">
<feFlood flood-opacity="0" result="BackgroundImageFix"/>
<feBlend mode="normal" in="SourceGraphic" in2="BackgroundImageFix" result="shape"/>
<feColorMatrix in="SourceAlpha" type="matrix" values="0 0 0 0 0 0 0 0 0 0 0 0 0 0 0 0 0 0 127 0" result="hardAlpha"/>
<feOffset dy="20"/>
<feGaussianBlur stdDeviation="4"/>
<feComposite in2="hardAlpha" operator="arithmetic" k2="-1" k3="1"/>
<feColorMatrix type="matrix" values="0 0 0 0 0 0 0 0 0 0 0 0 0 0 0 0 0 0 0.25 0"/>
<feBlend mode="normal" in2="shape" result="effect1_innerShadow_3_4"/>
</filter>
<filter id="filter1_i_3_4" x="600.833" y="126.174" width="1706.54" height="585.515" filterUnits="userSpaceOnUse" color-interpolation-filters="sRGB">
<feFlood flood-opacity="0" result="BackgroundImageFix"/>
<feBlend mode="normal" in="SourceGraphic" in2="BackgroundImageFix" result="shape"/>
<feColorMatrix in="SourceAlpha" type="matrix" values="0 0 0 0 0 0 0 0 0 0 0 0 0 0 0 0 0 0 127 0" result="hardAlpha"/>
<feOffset dy="15"/>
<feGaussianBlur stdDeviation="4"/>
<feComposite in2="hardAlpha" operator="arithmetic" k2="-1" k3="1"/>
<feColorMatrix type="matrix" values="0 0 0 0 0 0 0 0 0 0 0 0 0 0 0 0 0 0 0.25 0"/>
<feBlend mode="normal" in2="shape" result="effect1_innerShadow_3_4"/>
</filter>
</defs>
</svg>
