<svg width="2312" height="828" viewBox="0 0 2312 828" fill="none" xmlns="http://www.w3.org/2000/svg">
<g filter="url(#filter0_i_4_9)">
<path d="M2.72049 553C21.5205 682.2 188.554 789.833 269.72 827.5C217.887 762.667 114.22 617 114.22 553C114.22 473 213.72 399 260.72 306C298.32 231.6 220.054 117.333 176.22 69.5C183.72 93.1667 192.42 155.9 167.22 217.5C114.22 371.5 -20.7795 391.5 2.72049 553Z" fill="#303030"/>
<path d="M211.22 553C168.42 655.8 254.72 771.833 303.22 817C305.054 808.667 269.72 719 303.22 629C348.399 507.624 465.336 494.5 476.336 352C485.136 238 309.387 97.3333 204.72 51C263.22 77.8333 378.02 163.6 369.22 292C358.22 452.5 264.72 424.5 211.22 553Z" fill="#303030"/>
</g>
<g filter="url(#filter1_i_4_9)">
<path d="M738.125 696H640.712V263.139C640.712 233.354 646.45 208.329 657.924 188.065C669.399 167.558 685.756 152.055 706.997 141.557C728.237 131.059 753.261 125.81 782.07 125.81C791.591 125.81 800.625 126.42 809.169 127.641C817.958 128.861 826.625 130.57 835.17 132.768L833.339 206.376C828.701 205.155 823.574 204.301 817.958 203.812C812.587 203.324 806.606 203.08 800.014 203.08C786.831 203.08 775.6 205.399 766.323 210.038C757.045 214.677 749.965 221.513 745.083 230.546C740.444 239.335 738.125 250.199 738.125 263.139V696ZM818.325 299.76V369.34H581.02V299.76H818.325ZM1113.86 601.884V299.76H1211.27V696H1119.72L1113.86 601.884ZM1126.31 519.853L1156.34 519.12C1156.34 545.731 1153.41 570.268 1147.55 592.729C1141.69 615.189 1132.53 634.721 1120.08 651.322C1107.88 667.68 1092.37 680.497 1073.57 689.774C1054.77 698.808 1032.56 703.324 1006.92 703.324C987.392 703.324 969.57 700.639 953.457 695.268C937.343 689.652 923.427 680.985 911.708 669.267C900.234 657.304 891.323 642.045 884.975 623.49C878.627 604.691 875.454 582.108 875.454 555.741V299.76H972.133V556.474C972.133 569.657 973.598 580.644 976.528 589.433C979.702 598.222 983.974 605.424 989.345 611.039C994.96 616.41 1001.43 620.316 1008.75 622.758C1016.32 624.955 1024.38 626.054 1032.92 626.054C1056.36 626.054 1074.79 621.415 1088.22 612.138C1101.89 602.616 1111.66 589.921 1117.52 574.052C1123.38 557.938 1126.31 539.872 1126.31 519.853ZM1393.28 381.059V696H1296.6V299.76H1387.78L1393.28 381.059ZM1378.99 483.598H1349.33C1349.33 456.01 1352.63 430.619 1359.22 407.426C1366.05 384.232 1376.06 364.091 1389.25 347.001C1402.43 329.667 1418.67 316.239 1437.95 306.718C1457.48 297.196 1480.07 292.436 1505.7 292.436C1523.52 292.436 1539.88 295.121 1554.77 300.492C1569.67 305.619 1582.48 313.798 1593.23 325.028C1604.21 336.015 1612.64 350.419 1618.5 368.241C1624.35 385.819 1627.28 406.938 1627.28 431.596V696H1530.6V441.483C1530.6 422.929 1527.92 408.402 1522.55 397.904C1517.42 387.406 1509.98 380.082 1500.21 375.932C1490.44 371.537 1478.73 369.34 1465.05 369.34C1449.92 369.34 1436.85 372.392 1425.87 378.495C1415.13 384.354 1406.22 392.533 1399.14 403.031C1392.3 413.529 1387.17 425.614 1383.75 439.286C1380.58 452.958 1378.99 467.729 1378.99 483.598ZM1619.96 465.653L1580.04 472.978C1580.29 448.075 1583.71 424.76 1590.3 403.031C1596.89 381.059 1606.53 361.894 1619.23 345.536C1632.17 328.935 1648.16 315.995 1667.2 306.718C1686.49 297.196 1708.71 292.436 1733.85 292.436C1753.38 292.436 1770.96 295.243 1786.59 300.858C1802.46 306.229 1816.01 314.896 1827.24 326.859C1838.47 338.578 1847.01 353.837 1852.87 372.636C1858.97 391.435 1862.03 414.384 1862.03 441.483V696H1764.61V441.117C1764.61 421.83 1761.93 407.06 1756.56 396.806C1751.43 386.552 1743.98 379.472 1734.22 375.565C1724.45 371.415 1712.98 369.34 1699.79 369.34C1686.37 369.34 1674.65 371.903 1664.64 377.03C1654.87 381.913 1646.57 388.749 1639.74 397.538C1633.14 406.327 1628.14 416.581 1624.72 428.3C1621.55 439.774 1619.96 452.226 1619.96 465.653ZM2126.8 703.324C2096.77 703.324 2069.79 698.441 2045.86 688.676C2021.94 678.91 2001.55 665.36 1984.71 648.026C1968.1 630.448 1955.29 610.062 1946.25 586.869C1937.47 563.432 1933.07 538.285 1933.07 511.43V496.781C1933.07 466.264 1937.47 438.554 1946.25 413.651C1955.04 388.505 1967.49 366.898 1983.61 348.832C1999.72 330.766 2019.01 316.85 2041.47 307.084C2063.93 297.318 2088.71 292.436 2115.81 292.436C2143.89 292.436 2168.67 297.196 2190.15 306.718C2211.64 315.995 2229.58 329.179 2243.98 346.269C2258.39 363.358 2269.25 383.866 2276.58 407.792C2283.9 431.474 2287.56 457.719 2287.56 486.527V527.177H1977.02V460.526H2192.35V453.202C2191.86 437.821 2188.93 423.783 2183.56 411.088C2178.19 398.148 2169.89 387.895 2158.66 380.326C2147.43 372.514 2132.9 368.607 2115.08 368.607C2100.67 368.607 2088.1 371.781 2077.36 378.129C2066.86 384.232 2058.07 393.021 2050.99 404.496C2044.15 415.727 2039.03 429.154 2035.61 444.779C2032.19 460.404 2030.48 477.738 2030.48 496.781V511.43C2030.48 528.031 2032.68 543.412 2037.07 557.572C2041.71 571.732 2048.43 584.062 2057.22 594.56C2066.25 604.813 2076.99 612.87 2089.44 618.729C2102.14 624.345 2116.54 627.152 2132.66 627.152C2152.92 627.152 2171.23 623.246 2187.59 615.434C2204.19 607.377 2218.59 595.536 2230.8 579.911L2279.51 630.448C2271.21 642.655 2259.98 654.374 2245.81 665.604C2231.9 676.835 2215.05 685.99 2195.28 693.07C2175.5 699.906 2152.68 703.324 2126.8 703.324Z" fill="#303030"/>
</g>
<defs>
<filter id="filter0_i_4_9" x="0" y="51" width="476.655" height="784.5" filterUnits="userSpaceOnUse" color-interpolation-filters="sRGB">
<feFlood flood-opacity="0" result="BackgroundImageFix"/>
<feBlend mode="normal" in="SourceGraphic" in2="BackgroundImageFix" result="shape"/>
<feColorMatrix in="SourceAlpha" type="matrix" values="0 0 0 0 0 0 0 0 0 0 0 0 0 0 0 0 0 0 127 0" result="hardAlpha"/>
<feOffset dy="20"/>
<feGaussianBlur stdDeviation="4"/>
<feComposite in2="hardAlpha" operator="arithmetic" k2="-1" k3="1"/>
<feColorMatrix type="matrix" values="0 0 0 0 0 0 0 0 0 0 0 0 0 0 0 0 0 0 0.25 0"/>
<feBlend mode="normal" in2="shape" result="effect1_innerShadow_4_9"/>
</filter>
<filter id="filter1_i_4_9" x="581.02" y="125.81" width="1706.54" height="585.515" filterUnits="userSpaceOnUse" color-interpolation-filters="sRGB">
<feFlood flood-opacity="0" result="BackgroundImageFix"/>
<feBlend mode="normal" in="SourceGraphic" in2="BackgroundImageFix" result="shape"/>
<feColorMatrix in="SourceAlpha" type="matrix" values="0 0 0 0 0 0 0 0 0 0 0 0 0 0 0 0 0 0 127 0" result="hardAlpha"/>
<feOffset dy="15"/>
<feGaussianBlur stdDeviation="4"/>
<feComposite in2="hardAlpha" operator="arithmetic" k2="-1" k3="1"/>
<feColorMatrix type="matrix" values="0 0 0 0 0 0 0 0 0 0 0 0 0 0 0 0 0 0 0.25 0"/>
<feBlend mode="normal" in2="shape" result="effect1_innerShadow_4_9"/>
</filter>
</defs>
</svg>
